<svg width="325" height="325" viewBox="0 0 325 325" fill="none" xmlns="http://www.w3.org/2000/svg">
<path d="M19.678 211.65C82.5667 195.222 227.344 175.905 303.343 230.057" stroke="#58A7A7" stroke-width="7" stroke-linecap="round"/>
<path d="M36.9573 229.024C91.135 214.872 215.858 198.231 281.33 244.882" stroke="#58A7A7" stroke-width="7" stroke-linecap="round"/>
<path d="M34.7852 44V15.5625H43.5352C46.0352 15.5625 48.2682 16.1289 50.2344 17.2617C52.2135 18.3815 53.7565 19.9831 54.8633 22.0664C55.9701 24.1367 56.5234 26.4935 56.5234 29.1367V30.4453C56.5234 33.0885 55.9766 35.4388 54.8828 37.4961C53.8021 39.5534 52.2721 41.1484 50.293 42.2812C48.3138 43.4141 46.0807 43.987 43.5938 44H34.7852ZM40.6445 20.3086V39.293H43.4766C45.7682 39.293 47.5195 38.5443 48.7305 37.0469C49.9414 35.5495 50.5599 33.4076 50.5859 30.6211V29.1172C50.5859 26.2266 49.987 24.0391 48.7891 22.5547C47.5911 21.0573 45.8398 20.3086 43.5352 20.3086H40.6445ZM70.1562 44.3906C67.0573 44.3906 64.5312 43.4401 62.5781 41.5391C60.638 39.638 59.668 37.1055 59.668 33.9414V33.3945C59.668 31.2721 60.0781 29.3776 60.8984 27.7109C61.7188 26.0312 62.8776 24.7422 64.375 23.8438C65.8854 22.9323 67.6042 22.4766 69.5312 22.4766C72.4219 22.4766 74.694 23.388 76.3477 25.2109C78.0143 27.0339 78.8477 29.6185 78.8477 32.9648V35.2695H65.3906C65.5729 36.6497 66.1198 37.7565 67.0312 38.5898C67.9557 39.4232 69.1211 39.8398 70.5273 39.8398C72.7018 39.8398 74.401 39.0521 75.625 37.4766L78.3984 40.582C77.5521 41.7799 76.4062 42.7174 74.9609 43.3945C73.5156 44.0586 71.9141 44.3906 70.1562 44.3906ZM69.5117 27.0469C68.3919 27.0469 67.4805 27.4245 66.7773 28.1797C66.0872 28.9349 65.6445 30.0156 65.4492 31.4219H73.3008V30.9727C73.2747 29.7227 72.9362 28.7591 72.2852 28.082C71.6341 27.3919 70.7096 27.0469 69.5117 27.0469ZM93.5156 38.1602C93.5156 37.4701 93.1706 36.9297 92.4805 36.5391C91.8034 36.1354 90.7096 35.7773 89.1992 35.4648C84.1732 34.4102 81.6602 32.2747 81.6602 29.0586C81.6602 27.1836 82.4349 25.6211 83.9844 24.3711C85.5469 23.1081 87.5846 22.4766 90.0977 22.4766C92.7799 22.4766 94.9219 23.1081 96.5234 24.3711C98.138 25.6341 98.9453 27.2747 98.9453 29.293H93.3008C93.3008 28.4857 93.0404 27.8216 92.5195 27.3008C91.9987 26.7669 91.1849 26.5 90.0781 26.5C89.1276 26.5 88.3919 26.7148 87.8711 27.1445C87.3503 27.5742 87.0898 28.1211 87.0898 28.7852C87.0898 29.4102 87.3828 29.918 87.9688 30.3086C88.5677 30.6862 89.5703 31.0182 90.9766 31.3047C92.3828 31.5781 93.5677 31.8906 94.5312 32.2422C97.513 33.3359 99.0039 35.2305 99.0039 37.9258C99.0039 39.8529 98.1771 41.4154 96.5234 42.6133C94.8698 43.7982 92.7344 44.3906 90.1172 44.3906C88.3464 44.3906 86.7708 44.0781 85.3906 43.4531C84.0234 42.8151 82.9492 41.9492 82.168 40.8555C81.3867 39.7487 80.9961 38.5573 80.9961 37.2812H86.3477C86.3997 38.2839 86.7708 39.0521 87.4609 39.5859C88.151 40.1198 89.0755 40.3867 90.2344 40.3867C91.3151 40.3867 92.1289 40.1849 92.6758 39.7812C93.2357 39.3646 93.5156 38.8242 93.5156 38.1602ZM111.445 39.8398C112.487 39.8398 113.333 39.5534 113.984 38.9805C114.635 38.4076 114.974 37.6458 115 36.6953H120.293C120.28 38.1276 119.889 39.4427 119.121 40.6406C118.353 41.8255 117.298 42.75 115.957 43.4141C114.629 44.0651 113.158 44.3906 111.543 44.3906C108.522 44.3906 106.139 43.4336 104.395 41.5195C102.65 39.5924 101.777 36.9362 101.777 33.5508V33.1797C101.777 29.9245 102.643 27.3268 104.375 25.3867C106.107 23.4466 108.483 22.4766 111.504 22.4766C114.147 22.4766 116.263 23.2318 117.852 24.7422C119.453 26.2396 120.267 28.2383 120.293 30.7383H115C114.974 29.6445 114.635 28.7591 113.984 28.082C113.333 27.3919 112.474 27.0469 111.406 27.0469C110.091 27.0469 109.095 27.5286 108.418 28.4922C107.754 29.4427 107.422 30.9922 107.422 33.1406V33.7266C107.422 35.901 107.754 37.4635 108.418 38.4141C109.082 39.3646 110.091 39.8398 111.445 39.8398ZM136.172 41.8516C134.779 43.5443 132.852 44.3906 130.391 44.3906C128.125 44.3906 126.393 43.7396 125.195 42.4375C124.01 41.1354 123.405 39.2279 123.379 36.7148V22.8672H129.023V36.5195C129.023 38.7201 130.026 39.8203 132.031 39.8203C133.945 39.8203 135.26 39.1562 135.977 37.8281V22.8672H141.641V44H136.328L136.172 41.8516ZM164.941 33.6289C164.941 37.0143 164.219 39.6576 162.773 41.5586C161.328 43.4466 159.31 44.3906 156.719 44.3906C154.427 44.3906 152.598 43.5117 151.23 41.7539L150.977 44H145.898V14H151.543V24.7617C152.845 23.2383 154.557 22.4766 156.68 22.4766C159.258 22.4766 161.276 23.4271 162.734 25.3281C164.206 27.2161 164.941 29.8789 164.941 33.3164V33.6289ZM159.297 33.2188C159.297 31.0833 158.958 29.5273 158.281 28.5508C157.604 27.5612 156.595 27.0664 155.254 27.0664C153.457 27.0664 152.22 27.8021 151.543 29.2734V37.6133C152.233 39.0977 153.483 39.8398 155.293 39.8398C157.116 39.8398 158.314 38.9414 158.887 37.1445C159.16 36.2852 159.297 34.9766 159.297 33.2188ZM180.312 28.1602C179.544 28.056 178.867 28.0039 178.281 28.0039C176.146 28.0039 174.746 28.7266 174.082 30.1719V44H168.438V22.8672H173.77L173.926 25.3867C175.059 23.4466 176.628 22.4766 178.633 22.4766C179.258 22.4766 179.844 22.5612 180.391 22.7305L180.312 28.1602ZM194.707 44C194.447 43.4922 194.258 42.8607 194.141 42.1055C192.773 43.6289 190.996 44.3906 188.809 44.3906C186.738 44.3906 185.02 43.7917 183.652 42.5938C182.298 41.3958 181.621 39.8854 181.621 38.0625C181.621 35.8229 182.448 34.1042 184.102 32.9062C185.768 31.7083 188.171 31.1029 191.309 31.0898H193.906V29.8789C193.906 28.9023 193.652 28.1211 193.145 27.5352C192.65 26.9492 191.862 26.6562 190.781 26.6562C189.831 26.6562 189.082 26.8841 188.535 27.3398C188.001 27.7956 187.734 28.4206 187.734 29.2148H182.09C182.09 27.9909 182.467 26.8581 183.223 25.8164C183.978 24.7747 185.046 23.9609 186.426 23.375C187.806 22.776 189.355 22.4766 191.074 22.4766C193.678 22.4766 195.742 23.1341 197.266 24.4492C198.802 25.7513 199.57 27.5872 199.57 29.957V39.1172C199.583 41.1224 199.863 42.6393 200.41 43.668V44H194.707ZM190.039 40.0742C190.872 40.0742 191.641 39.8919 192.344 39.5273C193.047 39.1497 193.568 38.6484 193.906 38.0234V34.3906H191.797C188.971 34.3906 187.467 35.3672 187.285 37.3203L187.266 37.6523C187.266 38.3555 187.513 38.9349 188.008 39.3906C188.503 39.8464 189.18 40.0742 190.039 40.0742ZM220.625 17.6719V22.8672H224.238V27.0078H220.625V37.5547C220.625 38.3359 220.775 38.8958 221.074 39.2344C221.374 39.5729 221.947 39.7422 222.793 39.7422C223.418 39.7422 223.971 39.6966 224.453 39.6055V43.8828C223.346 44.2214 222.207 44.3906 221.035 44.3906C217.077 44.3906 215.059 42.3919 214.98 38.3945V27.0078H211.895V22.8672H214.98V17.6719H220.625ZM240.039 41.8516C238.646 43.5443 236.719 44.3906 234.258 44.3906C231.992 44.3906 230.26 43.7396 229.062 42.4375C227.878 41.1354 227.272 39.2279 227.246 36.7148V22.8672H232.891V36.5195C232.891 38.7201 233.893 39.8203 235.898 39.8203C237.812 39.8203 239.128 39.1562 239.844 37.8281V22.8672H245.508V44H240.195L240.039 41.8516ZM248.887 33.2773C248.887 29.9831 249.622 27.3594 251.094 25.4062C252.578 23.4531 254.603 22.4766 257.168 22.4766C259.225 22.4766 260.924 23.2448 262.266 24.7812V14H267.93V44H262.832L262.559 41.7539C261.152 43.5117 259.342 44.3906 257.129 44.3906C254.642 44.3906 252.643 43.4141 251.133 41.4609C249.635 39.4948 248.887 36.7669 248.887 33.2773ZM254.531 33.6875C254.531 35.6667 254.876 37.1836 255.566 38.2383C256.257 39.293 257.259 39.8203 258.574 39.8203C260.319 39.8203 261.549 39.0846 262.266 37.6133V29.2734C261.562 27.8021 260.345 27.0664 258.613 27.0664C255.892 27.0664 254.531 29.2734 254.531 33.6875ZM271.426 33.2383C271.426 31.1419 271.829 29.2734 272.637 27.6328C273.444 25.9922 274.603 24.7227 276.113 23.8242C277.637 22.9258 279.401 22.4766 281.406 22.4766C284.258 22.4766 286.582 23.349 288.379 25.0938C290.189 26.8385 291.198 29.2083 291.406 32.2031L291.445 33.6484C291.445 36.8906 290.54 39.4948 288.73 41.4609C286.921 43.4141 284.492 44.3906 281.445 44.3906C278.398 44.3906 275.964 43.4141 274.141 41.4609C272.331 39.5078 271.426 36.8516 271.426 33.4922V33.2383ZM277.07 33.6484C277.07 35.6536 277.448 37.1901 278.203 38.2578C278.958 39.3125 280.039 39.8398 281.445 39.8398C282.812 39.8398 283.88 39.319 284.648 38.2773C285.417 37.2227 285.801 35.543 285.801 33.2383C285.801 31.2721 285.417 29.7487 284.648 28.668C283.88 27.5872 282.799 27.0469 281.406 27.0469C280.026 27.0469 278.958 27.5872 278.203 28.668C277.448 29.7357 277.07 31.3958 277.07 33.6484ZM6.73828 93.2383C6.73828 89.918 7.47396 87.2943 8.94531 85.3672C10.4297 83.4401 12.4609 82.4766 15.0391 82.4766C17.3047 82.4766 19.1081 83.3424 20.4492 85.0742L20.8203 82.8672H25.7812V112.125H20.1172V102.184C18.8151 103.655 17.1094 104.391 15 104.391C12.487 104.391 10.4818 103.414 8.98438 101.461C7.48698 99.5078 6.73828 96.7669 6.73828 93.2383ZM12.3828 93.6484C12.3828 95.6667 12.7344 97.2031 13.4375 98.2578C14.1536 99.3125 15.1562 99.8398 16.4453 99.8398C18.1771 99.8398 19.401 99.1497 20.1172 97.7695V89.0391C19.4141 87.7109 18.2031 87.0469 16.4844 87.0469C15.1823 87.0469 14.1732 87.5742 13.457 88.6289C12.7409 89.6836 12.3828 91.3568 12.3828 93.6484ZM42.8906 101.852C41.4974 103.544 39.5703 104.391 37.1094 104.391C34.8438 104.391 33.112 103.74 31.9141 102.438C30.7292 101.135 30.1237 99.2279 30.0977 96.7148V82.8672H35.7422V96.5195C35.7422 98.7201 36.7448 99.8203 38.75 99.8203C40.6641 99.8203 41.9792 99.1562 42.6953 97.8281V82.8672H48.3594V104H43.0469L42.8906 101.852ZM62.3438 104.391C59.2448 104.391 56.7188 103.44 54.7656 101.539C52.8255 99.638 51.8555 97.1055 51.8555 93.9414V93.3945C51.8555 91.2721 52.2656 89.3776 53.0859 87.7109C53.9062 86.0312 55.0651 84.7422 56.5625 83.8438C58.0729 82.9323 59.7917 82.4766 61.7188 82.4766C64.6094 82.4766 66.8815 83.388 68.5352 85.2109C70.2018 87.0339 71.0352 89.6185 71.0352 92.9648V95.2695H57.5781C57.7604 96.6497 58.3073 97.7565 59.2188 98.5898C60.1432 99.4232 61.3086 99.8398 62.7148 99.8398C64.8893 99.8398 66.5885 99.0521 67.8125 97.4766L70.5859 100.582C69.7396 101.78 68.5938 102.717 67.1484 103.395C65.7031 104.059 64.1016 104.391 62.3438 104.391ZM61.6992 87.0469C60.5794 87.0469 59.668 87.4245 58.9648 88.1797C58.2747 88.9349 57.832 90.0156 57.6367 91.4219H65.4883V90.9727C65.4622 89.7227 65.1237 88.7591 64.4727 88.082C63.8216 87.3919 62.8971 87.0469 61.6992 87.0469ZM96.4648 104C96.2044 103.492 96.0156 102.861 95.8984 102.105C94.5312 103.629 92.7539 104.391 90.5664 104.391C88.4961 104.391 86.7773 103.792 85.4102 102.594C84.056 101.396 83.3789 99.8854 83.3789 98.0625C83.3789 95.8229 84.2057 94.1042 85.8594 92.9062C87.526 91.7083 89.9284 91.1029 93.0664 91.0898H95.6641V89.8789C95.6641 88.9023 95.4102 88.1211 94.9023 87.5352C94.4076 86.9492 93.6198 86.6562 92.5391 86.6562C91.5885 86.6562 90.8398 86.8841 90.293 87.3398C89.7591 87.7956 89.4922 88.4206 89.4922 89.2148H83.8477C83.8477 87.9909 84.2253 86.8581 84.9805 85.8164C85.7357 84.7747 86.8034 83.9609 88.1836 83.375C89.5638 82.776 91.1133 82.4766 92.832 82.4766C95.4362 82.4766 97.5 83.1341 99.0234 84.4492C100.56 85.7513 101.328 87.5872 101.328 89.957V99.1172C101.341 101.122 101.621 102.639 102.168 103.668V104H96.4648ZM91.7969 100.074C92.6302 100.074 93.3984 99.8919 94.1016 99.5273C94.8047 99.1497 95.3255 98.6484 95.6641 98.0234V94.3906H93.5547C90.7292 94.3906 89.2253 95.3672 89.043 97.3203L89.0234 97.6523C89.0234 98.3555 89.2708 98.9349 89.7656 99.3906C90.2604 99.8464 90.9375 100.074 91.7969 100.074ZM138.32 94.5273C138.099 97.5872 136.966 99.9961 134.922 101.754C132.891 103.512 130.208 104.391 126.875 104.391C123.229 104.391 120.358 103.167 118.262 100.719C116.178 98.2578 115.137 94.8854 115.137 90.6016V88.8633C115.137 86.1289 115.618 83.7201 116.582 81.6367C117.546 79.5534 118.919 77.9583 120.703 76.8516C122.5 75.7318 124.583 75.1719 126.953 75.1719C130.234 75.1719 132.878 76.0508 134.883 77.8086C136.888 79.5664 138.047 82.0339 138.359 85.2109H132.5C132.357 83.375 131.842 82.0469 130.957 81.2266C130.085 80.3932 128.75 79.9766 126.953 79.9766C125 79.9766 123.535 80.6797 122.559 82.0859C121.595 83.4792 121.1 85.6471 121.074 88.5898V90.7383C121.074 93.8112 121.536 96.0573 122.461 97.4766C123.398 98.8958 124.87 99.6055 126.875 99.6055C128.685 99.6055 130.033 99.1953 130.918 98.375C131.816 97.5417 132.331 96.2591 132.461 94.5273H138.32ZM154.043 104C153.783 103.492 153.594 102.861 153.477 102.105C152.109 103.629 150.332 104.391 148.145 104.391C146.074 104.391 144.355 103.792 142.988 102.594C141.634 101.396 140.957 99.8854 140.957 98.0625C140.957 95.8229 141.784 94.1042 143.438 92.9062C145.104 91.7083 147.507 91.1029 150.645 91.0898H153.242V89.8789C153.242 88.9023 152.988 88.1211 152.48 87.5352C151.986 86.9492 151.198 86.6562 150.117 86.6562C149.167 86.6562 148.418 86.8841 147.871 87.3398C147.337 87.7956 147.07 88.4206 147.07 89.2148H141.426C141.426 87.9909 141.803 86.8581 142.559 85.8164C143.314 84.7747 144.382 83.9609 145.762 83.375C147.142 82.776 148.691 82.4766 150.41 82.4766C153.014 82.4766 155.078 83.1341 156.602 84.4492C158.138 85.7513 158.906 87.5872 158.906 89.957V99.1172C158.919 101.122 159.199 102.639 159.746 103.668V104H154.043ZM149.375 100.074C150.208 100.074 150.977 99.8919 151.68 99.5273C152.383 99.1497 152.904 98.6484 153.242 98.0234V94.3906H151.133C148.307 94.3906 146.803 95.3672 146.621 97.3203L146.602 97.6523C146.602 98.3555 146.849 98.9349 147.344 99.3906C147.839 99.8464 148.516 100.074 149.375 100.074ZM170.918 95.5234L168.887 97.5547V104H163.242V74H168.887V90.6211L169.98 89.2148L175.391 82.8672H182.168L174.531 91.6758L182.832 104H176.348L170.918 95.5234ZM193.945 104.391C190.846 104.391 188.32 103.44 186.367 101.539C184.427 99.638 183.457 97.1055 183.457 93.9414V93.3945C183.457 91.2721 183.867 89.3776 184.688 87.7109C185.508 86.0312 186.667 84.7422 188.164 83.8438C189.674 82.9323 191.393 82.4766 193.32 82.4766C196.211 82.4766 198.483 83.388 200.137 85.2109C201.803 87.0339 202.637 89.6185 202.637 92.9648V95.2695H189.18C189.362 96.6497 189.909 97.7565 190.82 98.5898C191.745 99.4232 192.91 99.8398 194.316 99.8398C196.491 99.8398 198.19 99.0521 199.414 97.4766L202.188 100.582C201.341 101.78 200.195 102.717 198.75 103.395C197.305 104.059 195.703 104.391 193.945 104.391ZM193.301 87.0469C192.181 87.0469 191.27 87.4245 190.566 88.1797C189.876 88.9349 189.434 90.0156 189.238 91.4219H197.09V90.9727C197.064 89.7227 196.725 88.7591 196.074 88.082C195.423 87.3919 194.499 87.0469 193.301 87.0469ZM212.461 104H206.602V75.5625H212.461V104ZM224.297 77.6719V82.8672H227.91V87.0078H224.297V97.5547C224.297 98.3359 224.447 98.8958 224.746 99.2344C225.046 99.5729 225.618 99.7422 226.465 99.7422C227.09 99.7422 227.643 99.6966 228.125 99.6055V103.883C227.018 104.221 225.879 104.391 224.707 104.391C220.749 104.391 218.73 102.392 218.652 98.3945V87.0078H215.566V82.8672H218.652V77.6719H224.297ZM236.797 95.2695H232.109L231.445 75.5625H237.461L236.797 95.2695ZM234.453 98.3555C235.404 98.3555 236.165 98.6354 236.738 99.1953C237.324 99.7552 237.617 100.471 237.617 101.344C237.617 102.203 237.324 102.913 236.738 103.473C236.165 104.033 235.404 104.312 234.453 104.312C233.516 104.312 232.754 104.033 232.168 103.473C231.595 102.913 231.309 102.203 231.309 101.344C231.309 100.484 231.595 99.7747 232.168 99.2148C232.754 98.6419 233.516 98.3555 234.453 98.3555ZM258.672 77.6719V82.8672H262.285V87.0078H258.672V97.5547C258.672 98.3359 258.822 98.8958 259.121 99.2344C259.421 99.5729 259.993 99.7422 260.84 99.7422C261.465 99.7422 262.018 99.6966 262.5 99.6055V103.883C261.393 104.221 260.254 104.391 259.082 104.391C255.124 104.391 253.105 102.392 253.027 98.3945V87.0078H249.941V82.8672H253.027V77.6719H258.672ZM275.156 104.391C272.057 104.391 269.531 103.44 267.578 101.539C265.638 99.638 264.668 97.1055 264.668 93.9414V93.3945C264.668 91.2721 265.078 89.3776 265.898 87.7109C266.719 86.0312 267.878 84.7422 269.375 83.8438C270.885 82.9323 272.604 82.4766 274.531 82.4766C277.422 82.4766 279.694 83.388 281.348 85.2109C283.014 87.0339 283.848 89.6185 283.848 92.9648V95.2695H270.391C270.573 96.6497 271.12 97.7565 272.031 98.5898C272.956 99.4232 274.121 99.8398 275.527 99.8398C277.702 99.8398 279.401 99.0521 280.625 97.4766L283.398 100.582C282.552 101.78 281.406 102.717 279.961 103.395C278.516 104.059 276.914 104.391 275.156 104.391ZM274.512 87.0469C273.392 87.0469 272.48 87.4245 271.777 88.1797C271.087 88.9349 270.645 90.0156 270.449 91.4219H278.301V90.9727C278.275 89.7227 277.936 88.7591 277.285 88.082C276.634 87.3919 275.71 87.0469 274.512 87.0469ZM292.363 82.8672L292.539 85.2305C294.036 83.3945 296.061 82.4766 298.613 82.4766C301.335 82.4766 303.203 83.5508 304.219 85.6992C305.703 83.5508 307.819 82.4766 310.566 82.4766C312.858 82.4766 314.564 83.1471 315.684 84.4883C316.803 85.8164 317.363 87.8216 317.363 90.5039V104H311.699V90.5234C311.699 89.3255 311.465 88.4531 310.996 87.9062C310.527 87.3464 309.701 87.0664 308.516 87.0664C306.823 87.0664 305.651 87.8737 305 89.4883L305.02 104H299.375V90.543C299.375 89.319 299.134 88.4336 298.652 87.8867C298.171 87.3398 297.35 87.0664 296.191 87.0664C294.59 87.0664 293.431 87.7305 292.715 89.0586V104H287.07V82.8672H292.363ZM81.543 164C81.2826 163.492 81.0938 162.861 80.9766 162.105C79.6094 163.629 77.832 164.391 75.6445 164.391C73.5742 164.391 71.8555 163.792 70.4883 162.594C69.1341 161.396 68.457 159.885 68.457 158.062C68.457 155.823 69.2839 154.104 70.9375 152.906C72.6042 151.708 75.0065 151.103 78.1445 151.09H80.7422V149.879C80.7422 148.902 80.4883 148.121 79.9805 147.535C79.4857 146.949 78.6979 146.656 77.6172 146.656C76.6667 146.656 75.918 146.884 75.3711 147.34C74.8372 147.796 74.5703 148.421 74.5703 149.215H68.9258C68.9258 147.991 69.3034 146.858 70.0586 145.816C70.8138 144.775 71.8815 143.961 73.2617 143.375C74.6419 142.776 76.1914 142.477 77.9102 142.477C80.5143 142.477 82.5781 143.134 84.1016 144.449C85.638 145.751 86.4062 147.587 86.4062 149.957V159.117C86.4193 161.122 86.6992 162.639 87.2461 163.668V164H81.543ZM76.875 160.074C77.7083 160.074 78.4766 159.892 79.1797 159.527C79.8828 159.15 80.4036 158.648 80.7422 158.023V154.391H78.6328C75.8073 154.391 74.3034 155.367 74.1211 157.32L74.1016 157.652C74.1016 158.355 74.349 158.935 74.8438 159.391C75.3385 159.846 76.0156 160.074 76.875 160.074ZM99.8242 153.238C99.8242 151.142 100.228 149.273 101.035 147.633C101.842 145.992 103.001 144.723 104.512 143.824C106.035 142.926 107.799 142.477 109.805 142.477C112.656 142.477 114.98 143.349 116.777 145.094C118.587 146.839 119.596 149.208 119.805 152.203L119.844 153.648C119.844 156.891 118.939 159.495 117.129 161.461C115.319 163.414 112.891 164.391 109.844 164.391C106.797 164.391 104.362 163.414 102.539 161.461C100.729 159.508 99.8242 156.852 99.8242 153.492V153.238ZM105.469 153.648C105.469 155.654 105.846 157.19 106.602 158.258C107.357 159.312 108.438 159.84 109.844 159.84C111.211 159.84 112.279 159.319 113.047 158.277C113.815 157.223 114.199 155.543 114.199 153.238C114.199 151.272 113.815 149.749 113.047 148.668C112.279 147.587 111.198 147.047 109.805 147.047C108.424 147.047 107.357 147.587 106.602 148.668C105.846 149.736 105.469 151.396 105.469 153.648ZM124.863 164V147.008H121.719V142.867H124.863V141.07C124.863 138.701 125.54 136.865 126.895 135.562C128.262 134.247 130.169 133.59 132.617 133.59C133.398 133.59 134.355 133.72 135.488 133.98L135.43 138.355C134.961 138.238 134.388 138.18 133.711 138.18C131.589 138.18 130.527 139.176 130.527 141.168V142.867H134.727V147.008H130.527V164H124.863ZM146.914 164.391C143.815 164.391 141.289 163.44 139.336 161.539C137.396 159.638 136.426 157.105 136.426 153.941V153.395C136.426 151.272 136.836 149.378 137.656 147.711C138.477 146.031 139.635 144.742 141.133 143.844C142.643 142.932 144.362 142.477 146.289 142.477C149.18 142.477 151.452 143.388 153.105 145.211C154.772 147.034 155.605 149.618 155.605 152.965V155.27H142.148C142.331 156.65 142.878 157.757 143.789 158.59C144.714 159.423 145.879 159.84 147.285 159.84C149.46 159.84 151.159 159.052 152.383 157.477L155.156 160.582C154.31 161.78 153.164 162.717 151.719 163.395C150.273 164.059 148.672 164.391 146.914 164.391ZM146.27 147.047C145.15 147.047 144.238 147.424 143.535 148.18C142.845 148.935 142.402 150.016 142.207 151.422H150.059V150.973C150.033 149.723 149.694 148.759 149.043 148.082C148.392 147.392 147.467 147.047 146.27 147.047ZM170.703 148.16C169.935 148.056 169.258 148.004 168.672 148.004C166.536 148.004 165.137 148.727 164.473 150.172V164H158.828V142.867H164.16L164.316 145.387C165.449 143.447 167.018 142.477 169.023 142.477C169.648 142.477 170.234 142.561 170.781 142.73L170.703 148.16ZM182.773 164.391C179.674 164.391 177.148 163.44 175.195 161.539C173.255 159.638 172.285 157.105 172.285 153.941V153.395C172.285 151.272 172.695 149.378 173.516 147.711C174.336 146.031 175.495 144.742 176.992 143.844C178.503 142.932 180.221 142.477 182.148 142.477C185.039 142.477 187.311 143.388 188.965 145.211C190.632 147.034 191.465 149.618 191.465 152.965V155.27H178.008C178.19 156.65 178.737 157.757 179.648 158.59C180.573 159.423 181.738 159.84 183.145 159.84C185.319 159.84 187.018 159.052 188.242 157.477L191.016 160.582C190.169 161.78 189.023 162.717 187.578 163.395C186.133 164.059 184.531 164.391 182.773 164.391ZM182.129 147.047C181.009 147.047 180.098 147.424 179.395 148.18C178.704 148.935 178.262 150.016 178.066 151.422H185.918V150.973C185.892 149.723 185.553 148.759 184.902 148.082C184.251 147.392 183.327 147.047 182.129 147.047ZM203.477 159.84C204.518 159.84 205.365 159.553 206.016 158.98C206.667 158.408 207.005 157.646 207.031 156.695H212.324C212.311 158.128 211.921 159.443 211.152 160.641C210.384 161.826 209.329 162.75 207.988 163.414C206.66 164.065 205.189 164.391 203.574 164.391C200.553 164.391 198.171 163.434 196.426 161.52C194.681 159.592 193.809 156.936 193.809 153.551V153.18C193.809 149.924 194.674 147.327 196.406 145.387C198.138 143.447 200.514 142.477 203.535 142.477C206.178 142.477 208.294 143.232 209.883 144.742C211.484 146.24 212.298 148.238 212.324 150.738H207.031C207.005 149.645 206.667 148.759 206.016 148.082C205.365 147.392 204.505 147.047 203.438 147.047C202.122 147.047 201.126 147.529 200.449 148.492C199.785 149.443 199.453 150.992 199.453 153.141V153.727C199.453 155.901 199.785 157.464 200.449 158.414C201.113 159.365 202.122 159.84 203.477 159.84ZM225.273 164.391C222.174 164.391 219.648 163.44 217.695 161.539C215.755 159.638 214.785 157.105 214.785 153.941V153.395C214.785 151.272 215.195 149.378 216.016 147.711C216.836 146.031 217.995 144.742 219.492 143.844C221.003 142.932 222.721 142.477 224.648 142.477C227.539 142.477 229.811 143.388 231.465 145.211C233.132 147.034 233.965 149.618 233.965 152.965V155.27H220.508C220.69 156.65 221.237 157.757 222.148 158.59C223.073 159.423 224.238 159.84 225.645 159.84C227.819 159.84 229.518 159.052 230.742 157.477L233.516 160.582C232.669 161.78 231.523 162.717 230.078 163.395C228.633 164.059 227.031 164.391 225.273 164.391ZM224.629 147.047C223.509 147.047 222.598 147.424 221.895 148.18C221.204 148.935 220.762 150.016 220.566 151.422H228.418V150.973C228.392 149.723 228.053 148.759 227.402 148.082C226.751 147.392 225.827 147.047 224.629 147.047ZM249.062 148.16C248.294 148.056 247.617 148.004 247.031 148.004C244.896 148.004 243.496 148.727 242.832 150.172V164H237.188V142.867H242.52L242.676 145.387C243.809 143.447 245.378 142.477 247.383 142.477C248.008 142.477 248.594 142.561 249.141 142.73L249.062 148.16ZM248.691 161.227C248.691 160.328 248.991 159.599 249.59 159.039C250.202 158.479 250.964 158.199 251.875 158.199C252.799 158.199 253.561 158.479 254.16 159.039C254.772 159.599 255.078 160.328 255.078 161.227C255.078 162.112 254.779 162.835 254.18 163.395C253.581 163.941 252.812 164.215 251.875 164.215C250.951 164.215 250.189 163.941 249.59 163.395C248.991 162.835 248.691 162.112 248.691 161.227Z" fill="#1D1D1F"/>
</svg>
