<svg width="419" height="293" viewBox="0 0 419 293" fill="none" xmlns="http://www.w3.org/2000/svg">
<path d="M40.8711 159.096C114.996 139.734 285.64 116.966 375.217 180.793" stroke="#58A7A7" stroke-width="7" stroke-linecap="round"/>
<path d="M61.2379 179.575C125.095 162.895 272.102 143.28 349.272 198.266" stroke="#58A7A7" stroke-width="7" stroke-linecap="round"/>
<path d="M27.7812 44V15.5625H36.5312C39.0312 15.5625 41.2643 16.1289 43.2305 17.2617C45.2096 18.3815 46.7526 19.9831 47.8594 22.0664C48.9661 24.1367 49.5195 26.4935 49.5195 29.1367V30.4453C49.5195 33.0885 48.9727 35.4388 47.8789 37.4961C46.7982 39.5534 45.2682 41.1484 43.2891 42.2812C41.3099 43.4141 39.0768 43.987 36.5898 44H27.7812ZM33.6406 20.3086V39.293H36.4727C38.7643 39.293 40.5156 38.5443 41.7266 37.0469C42.9375 35.5495 43.556 33.4076 43.582 30.6211V29.1172C43.582 26.2266 42.9831 24.0391 41.7852 22.5547C40.5872 21.0573 38.8359 20.3086 36.5312 20.3086H33.6406ZM63.1523 44.3906C60.0534 44.3906 57.5273 43.4401 55.5742 41.5391C53.6341 39.638 52.6641 37.1055 52.6641 33.9414V33.3945C52.6641 31.2721 53.0742 29.3776 53.8945 27.7109C54.7148 26.0312 55.8737 24.7422 57.3711 23.8438C58.8815 22.9323 60.6003 22.4766 62.5273 22.4766C65.418 22.4766 67.6901 23.388 69.3438 25.2109C71.0104 27.0339 71.8438 29.6185 71.8438 32.9648V35.2695H58.3867C58.569 36.6497 59.1159 37.7565 60.0273 38.5898C60.9518 39.4232 62.1172 39.8398 63.5234 39.8398C65.6979 39.8398 67.3971 39.0521 68.6211 37.4766L71.3945 40.582C70.5482 41.7799 69.4023 42.7174 67.957 43.3945C66.5117 44.0586 64.9102 44.3906 63.1523 44.3906ZM62.5078 27.0469C61.388 27.0469 60.4766 27.4245 59.7734 28.1797C59.0833 28.9349 58.6406 30.0156 58.4453 31.4219H66.2969V30.9727C66.2708 29.7227 65.9323 28.7591 65.2812 28.082C64.6302 27.3919 63.7057 27.0469 62.5078 27.0469ZM86.5117 38.1602C86.5117 37.4701 86.1667 36.9297 85.4766 36.5391C84.7995 36.1354 83.7057 35.7773 82.1953 35.4648C77.1693 34.4102 74.6562 32.2747 74.6562 29.0586C74.6562 27.1836 75.431 25.6211 76.9805 24.3711C78.543 23.1081 80.5807 22.4766 83.0938 22.4766C85.776 22.4766 87.918 23.1081 89.5195 24.3711C91.1341 25.6341 91.9414 27.2747 91.9414 29.293H86.2969C86.2969 28.4857 86.0365 27.8216 85.5156 27.3008C84.9948 26.7669 84.181 26.5 83.0742 26.5C82.1237 26.5 81.388 26.7148 80.8672 27.1445C80.3464 27.5742 80.0859 28.1211 80.0859 28.7852C80.0859 29.4102 80.3789 29.918 80.9648 30.3086C81.5638 30.6862 82.5664 31.0182 83.9727 31.3047C85.3789 31.5781 86.5638 31.8906 87.5273 32.2422C90.5091 33.3359 92 35.2305 92 37.9258C92 39.8529 91.1732 41.4154 89.5195 42.6133C87.8659 43.7982 85.7305 44.3906 83.1133 44.3906C81.3424 44.3906 79.7669 44.0781 78.3867 43.4531C77.0195 42.8151 75.9453 41.9492 75.1641 40.8555C74.3828 39.7487 73.9922 38.5573 73.9922 37.2812H79.3438C79.3958 38.2839 79.7669 39.0521 80.457 39.5859C81.1471 40.1198 82.0716 40.3867 83.2305 40.3867C84.3112 40.3867 85.125 40.1849 85.6719 39.7812C86.2318 39.3646 86.5117 38.8242 86.5117 38.1602ZM104.441 39.8398C105.483 39.8398 106.329 39.5534 106.98 38.9805C107.632 38.4076 107.97 37.6458 107.996 36.6953H113.289C113.276 38.1276 112.885 39.4427 112.117 40.6406C111.349 41.8255 110.294 42.75 108.953 43.4141C107.625 44.0651 106.154 44.3906 104.539 44.3906C101.518 44.3906 99.1354 43.4336 97.3906 41.5195C95.6458 39.5924 94.7734 36.9362 94.7734 33.5508V33.1797C94.7734 29.9245 95.6393 27.3268 97.3711 25.3867C99.1029 23.4466 101.479 22.4766 104.5 22.4766C107.143 22.4766 109.259 23.2318 110.848 24.7422C112.449 26.2396 113.263 28.2383 113.289 30.7383H107.996C107.97 29.6445 107.632 28.7591 106.98 28.082C106.329 27.3919 105.47 27.0469 104.402 27.0469C103.087 27.0469 102.091 27.5286 101.414 28.4922C100.75 29.4427 100.418 30.9922 100.418 33.1406V33.7266C100.418 35.901 100.75 37.4635 101.414 38.4141C102.078 39.3646 103.087 39.8398 104.441 39.8398ZM129.168 41.8516C127.775 43.5443 125.848 44.3906 123.387 44.3906C121.121 44.3906 119.389 43.7396 118.191 42.4375C117.007 41.1354 116.401 39.2279 116.375 36.7148V22.8672H122.02V36.5195C122.02 38.7201 123.022 39.8203 125.027 39.8203C126.941 39.8203 128.257 39.1562 128.973 37.8281V22.8672H134.637V44H129.324L129.168 41.8516ZM157.938 33.6289C157.938 37.0143 157.215 39.6576 155.77 41.5586C154.324 43.4466 152.306 44.3906 149.715 44.3906C147.423 44.3906 145.594 43.5117 144.227 41.7539L143.973 44H138.895V14H144.539V24.7617C145.841 23.2383 147.553 22.4766 149.676 22.4766C152.254 22.4766 154.272 23.4271 155.73 25.3281C157.202 27.2161 157.938 29.8789 157.938 33.3164V33.6289ZM152.293 33.2188C152.293 31.0833 151.954 29.5273 151.277 28.5508C150.6 27.5612 149.591 27.0664 148.25 27.0664C146.453 27.0664 145.216 27.8021 144.539 29.2734V37.6133C145.229 39.0977 146.479 39.8398 148.289 39.8398C150.112 39.8398 151.31 38.9414 151.883 37.1445C152.156 36.2852 152.293 34.9766 152.293 33.2188ZM173.309 28.1602C172.54 28.056 171.863 28.0039 171.277 28.0039C169.142 28.0039 167.742 28.7266 167.078 30.1719V44H161.434V22.8672H166.766L166.922 25.3867C168.055 23.4466 169.624 22.4766 171.629 22.4766C172.254 22.4766 172.84 22.5612 173.387 22.7305L173.309 28.1602ZM187.703 44C187.443 43.4922 187.254 42.8607 187.137 42.1055C185.77 43.6289 183.992 44.3906 181.805 44.3906C179.734 44.3906 178.016 43.7917 176.648 42.5938C175.294 41.3958 174.617 39.8854 174.617 38.0625C174.617 35.8229 175.444 34.1042 177.098 32.9062C178.764 31.7083 181.167 31.1029 184.305 31.0898H186.902V29.8789C186.902 28.9023 186.648 28.1211 186.141 27.5352C185.646 26.9492 184.858 26.6562 183.777 26.6562C182.827 26.6562 182.078 26.8841 181.531 27.3398C180.997 27.7956 180.73 28.4206 180.73 29.2148H175.086C175.086 27.9909 175.464 26.8581 176.219 25.8164C176.974 24.7747 178.042 23.9609 179.422 23.375C180.802 22.776 182.352 22.4766 184.07 22.4766C186.674 22.4766 188.738 23.1341 190.262 24.4492C191.798 25.7513 192.566 27.5872 192.566 29.957V39.1172C192.579 41.1224 192.859 42.6393 193.406 43.668V44H187.703ZM183.035 40.0742C183.868 40.0742 184.637 39.8919 185.34 39.5273C186.043 39.1497 186.564 38.6484 186.902 38.0234V34.3906H184.793C181.967 34.3906 180.464 35.3672 180.281 37.3203L180.262 37.6523C180.262 38.3555 180.509 38.9349 181.004 39.3906C181.499 39.8464 182.176 40.0742 183.035 40.0742ZM213.621 17.6719V22.8672H217.234V27.0078H213.621V37.5547C213.621 38.3359 213.771 38.8958 214.07 39.2344C214.37 39.5729 214.943 39.7422 215.789 39.7422C216.414 39.7422 216.967 39.6966 217.449 39.6055V43.8828C216.342 44.2214 215.203 44.3906 214.031 44.3906C210.073 44.3906 208.055 42.3919 207.977 38.3945V27.0078H204.891V22.8672H207.977V17.6719H213.621ZM233.035 41.8516C231.642 43.5443 229.715 44.3906 227.254 44.3906C224.988 44.3906 223.257 43.7396 222.059 42.4375C220.874 41.1354 220.268 39.2279 220.242 36.7148V22.8672H225.887V36.5195C225.887 38.7201 226.889 39.8203 228.895 39.8203C230.809 39.8203 232.124 39.1562 232.84 37.8281V22.8672H238.504V44H233.191L233.035 41.8516ZM241.883 33.2773C241.883 29.9831 242.618 27.3594 244.09 25.4062C245.574 23.4531 247.599 22.4766 250.164 22.4766C252.221 22.4766 253.921 23.2448 255.262 24.7812V14H260.926V44H255.828L255.555 41.7539C254.148 43.5117 252.339 44.3906 250.125 44.3906C247.638 44.3906 245.639 43.4141 244.129 41.4609C242.632 39.4948 241.883 36.7669 241.883 33.2773ZM247.527 33.6875C247.527 35.6667 247.872 37.1836 248.562 38.2383C249.253 39.293 250.255 39.8203 251.57 39.8203C253.315 39.8203 254.546 39.0846 255.262 37.6133V29.2734C254.559 27.8021 253.341 27.0664 251.609 27.0664C248.888 27.0664 247.527 29.2734 247.527 33.6875ZM264.422 33.2383C264.422 31.1419 264.826 29.2734 265.633 27.6328C266.44 25.9922 267.599 24.7227 269.109 23.8242C270.633 22.9258 272.397 22.4766 274.402 22.4766C277.254 22.4766 279.578 23.349 281.375 25.0938C283.185 26.8385 284.194 29.2083 284.402 32.2031L284.441 33.6484C284.441 36.8906 283.536 39.4948 281.727 41.4609C279.917 43.4141 277.488 44.3906 274.441 44.3906C271.395 44.3906 268.96 43.4141 267.137 41.4609C265.327 39.5078 264.422 36.8516 264.422 33.4922V33.2383ZM270.066 33.6484C270.066 35.6536 270.444 37.1901 271.199 38.2578C271.954 39.3125 273.035 39.8398 274.441 39.8398C275.809 39.8398 276.876 39.319 277.645 38.2773C278.413 37.2227 278.797 35.543 278.797 33.2383C278.797 31.2721 278.413 29.7487 277.645 28.668C276.876 27.5872 275.796 27.0469 274.402 27.0469C273.022 27.0469 271.954 27.5872 271.199 28.668C270.444 29.7357 270.066 31.3958 270.066 33.6484ZM297 33.2383C297 29.918 297.736 27.2943 299.207 25.3672C300.691 23.4401 302.723 22.4766 305.301 22.4766C307.566 22.4766 309.37 23.3424 310.711 25.0742L311.082 22.8672H316.043V52.125H310.379V42.1836C309.077 43.6549 307.371 44.3906 305.262 44.3906C302.749 44.3906 300.743 43.4141 299.246 41.4609C297.749 39.5078 297 36.7669 297 33.2383ZM302.645 33.6484C302.645 35.6667 302.996 37.2031 303.699 38.2578C304.415 39.3125 305.418 39.8398 306.707 39.8398C308.439 39.8398 309.663 39.1497 310.379 37.7695V29.0391C309.676 27.7109 308.465 27.0469 306.746 27.0469C305.444 27.0469 304.435 27.5742 303.719 28.6289C303.003 29.6836 302.645 31.3568 302.645 33.6484ZM333.152 41.8516C331.759 43.5443 329.832 44.3906 327.371 44.3906C325.105 44.3906 323.374 43.7396 322.176 42.4375C320.991 41.1354 320.385 39.2279 320.359 36.7148V22.8672H326.004V36.5195C326.004 38.7201 327.007 39.8203 329.012 39.8203C330.926 39.8203 332.241 39.1562 332.957 37.8281V22.8672H338.621V44H333.309L333.152 41.8516ZM352.605 44.3906C349.507 44.3906 346.98 43.4401 345.027 41.5391C343.087 39.638 342.117 37.1055 342.117 33.9414V33.3945C342.117 31.2721 342.527 29.3776 343.348 27.7109C344.168 26.0312 345.327 24.7422 346.824 23.8438C348.335 22.9323 350.053 22.4766 351.98 22.4766C354.871 22.4766 357.143 23.388 358.797 25.2109C360.464 27.0339 361.297 29.6185 361.297 32.9648V35.2695H347.84C348.022 36.6497 348.569 37.7565 349.48 38.5898C350.405 39.4232 351.57 39.8398 352.977 39.8398C355.151 39.8398 356.85 39.0521 358.074 37.4766L360.848 40.582C360.001 41.7799 358.855 42.7174 357.41 43.3945C355.965 44.0586 354.363 44.3906 352.605 44.3906ZM351.961 27.0469C350.841 27.0469 349.93 27.4245 349.227 28.1797C348.536 28.9349 348.094 30.0156 347.898 31.4219H355.75V30.9727C355.724 29.7227 355.385 28.7591 354.734 28.082C354.083 27.3919 353.159 27.0469 351.961 27.0469ZM386.727 44C386.466 43.4922 386.277 42.8607 386.16 42.1055C384.793 43.6289 383.016 44.3906 380.828 44.3906C378.758 44.3906 377.039 43.7917 375.672 42.5938C374.318 41.3958 373.641 39.8854 373.641 38.0625C373.641 35.8229 374.467 34.1042 376.121 32.9062C377.788 31.7083 380.19 31.1029 383.328 31.0898H385.926V29.8789C385.926 28.9023 385.672 28.1211 385.164 27.5352C384.669 26.9492 383.882 26.6562 382.801 26.6562C381.85 26.6562 381.102 26.8841 380.555 27.3398C380.021 27.7956 379.754 28.4206 379.754 29.2148H374.109C374.109 27.9909 374.487 26.8581 375.242 25.8164C375.997 24.7747 377.065 23.9609 378.445 23.375C379.826 22.776 381.375 22.4766 383.094 22.4766C385.698 22.4766 387.762 23.1341 389.285 24.4492C390.822 25.7513 391.59 27.5872 391.59 29.957V39.1172C391.603 41.1224 391.883 42.6393 392.43 43.668V44H386.727ZM382.059 40.0742C382.892 40.0742 383.66 39.8919 384.363 39.5273C385.066 39.1497 385.587 38.6484 385.926 38.0234V34.3906H383.816C380.991 34.3906 379.487 35.3672 379.305 37.3203L379.285 37.6523C379.285 38.3555 379.533 38.9349 380.027 39.3906C380.522 39.8464 381.199 40.0742 382.059 40.0742ZM30.9648 94.5273C30.7435 97.5872 29.6107 99.9961 27.5664 101.754C25.5352 103.512 22.8529 104.391 19.5195 104.391C15.8737 104.391 13.0026 103.167 10.9062 100.719C8.82292 98.2578 7.78125 94.8854 7.78125 90.6016V88.8633C7.78125 86.1289 8.26302 83.7201 9.22656 81.6367C10.1901 79.5534 11.5638 77.9583 13.3477 76.8516C15.1445 75.7318 17.2279 75.1719 19.5977 75.1719C22.8789 75.1719 25.5221 76.0508 27.5273 77.8086C29.5326 79.5664 30.6914 82.0339 31.0039 85.2109H25.1445C25.0013 83.375 24.487 82.0469 23.6016 81.2266C22.7292 80.3932 21.3945 79.9766 19.5977 79.9766C17.6445 79.9766 16.1797 80.6797 15.2031 82.0859C14.2396 83.4792 13.7448 85.6471 13.7188 88.5898V90.7383C13.7188 93.8112 14.181 96.0573 15.1055 97.4766C16.043 98.8958 17.5143 99.6055 19.5195 99.6055C21.3294 99.6055 22.6771 99.1953 23.5625 98.375C24.4609 97.5417 24.9753 96.2591 25.1055 94.5273H30.9648ZM46.6875 104C46.4271 103.492 46.2383 102.861 46.1211 102.105C44.7539 103.629 42.9766 104.391 40.7891 104.391C38.7188 104.391 37 103.792 35.6328 102.594C34.2786 101.396 33.6016 99.8854 33.6016 98.0625C33.6016 95.8229 34.4284 94.1042 36.082 92.9062C37.7487 91.7083 40.151 91.1029 43.2891 91.0898H45.8867V89.8789C45.8867 88.9023 45.6328 88.1211 45.125 87.5352C44.6302 86.9492 43.8424 86.6562 42.7617 86.6562C41.8112 86.6562 41.0625 86.8841 40.5156 87.3398C39.9818 87.7956 39.7148 88.4206 39.7148 89.2148H34.0703C34.0703 87.9909 34.4479 86.8581 35.2031 85.8164C35.9583 84.7747 37.026 83.9609 38.4062 83.375C39.7865 82.776 41.3359 82.4766 43.0547 82.4766C45.6589 82.4766 47.7227 83.1341 49.2461 84.4492C50.7826 85.7513 51.5508 87.5872 51.5508 89.957V99.1172C51.5638 101.122 51.8438 102.639 52.3906 103.668V104H46.6875ZM42.0195 100.074C42.8529 100.074 43.6211 99.8919 44.3242 99.5273C45.0273 99.1497 45.5482 98.6484 45.8867 98.0234V94.3906H43.7773C40.9518 94.3906 39.4479 95.3672 39.2656 97.3203L39.2461 97.6523C39.2461 98.3555 39.4935 98.9349 39.9883 99.3906C40.4831 99.8464 41.1602 100.074 42.0195 100.074ZM63.5625 95.5234L61.5312 97.5547V104H55.8867V74H61.5312V90.6211L62.625 89.2148L68.0352 82.8672H74.8125L67.1758 91.6758L75.4766 104H68.9922L63.5625 95.5234ZM86.5898 104.391C83.4909 104.391 80.9648 103.44 79.0117 101.539C77.0716 99.638 76.1016 97.1055 76.1016 93.9414V93.3945C76.1016 91.2721 76.5117 89.3776 77.332 87.7109C78.1523 86.0312 79.3112 84.7422 80.8086 83.8438C82.319 82.9323 84.0378 82.4766 85.9648 82.4766C88.8555 82.4766 91.1276 83.388 92.7812 85.2109C94.4479 87.0339 95.2812 89.6185 95.2812 92.9648V95.2695H81.8242C82.0065 96.6497 82.5534 97.7565 83.4648 98.5898C84.3893 99.4232 85.5547 99.8398 86.9609 99.8398C89.1354 99.8398 90.8346 99.0521 92.0586 97.4766L94.832 100.582C93.9857 101.78 92.8398 102.717 91.3945 103.395C89.9492 104.059 88.3477 104.391 86.5898 104.391ZM85.9453 87.0469C84.8255 87.0469 83.9141 87.4245 83.2109 88.1797C82.5208 88.9349 82.0781 90.0156 81.8828 91.4219H89.7344V90.9727C89.7083 89.7227 89.3698 88.7591 88.7188 88.082C88.0677 87.3919 87.1432 87.0469 85.9453 87.0469ZM105.105 104H99.2461V75.5625H105.105V104ZM116.941 77.6719V82.8672H120.555V87.0078H116.941V97.5547C116.941 98.3359 117.091 98.8958 117.391 99.2344C117.69 99.5729 118.263 99.7422 119.109 99.7422C119.734 99.7422 120.288 99.6966 120.77 99.6055V103.883C119.663 104.221 118.523 104.391 117.352 104.391C113.393 104.391 111.375 102.392 111.297 98.3945V87.0078H108.211V82.8672H111.297V77.6719H116.941ZM129.441 95.2695H124.754L124.09 75.5625H130.105L129.441 95.2695ZM127.098 98.3555C128.048 98.3555 128.81 98.6354 129.383 99.1953C129.969 99.7552 130.262 100.471 130.262 101.344C130.262 102.203 129.969 102.913 129.383 103.473C128.81 104.033 128.048 104.312 127.098 104.312C126.16 104.312 125.398 104.033 124.812 103.473C124.24 102.913 123.953 102.203 123.953 101.344C123.953 100.484 124.24 99.7747 124.812 99.2148C125.398 98.6419 126.16 98.3555 127.098 98.3555ZM151.316 77.6719V82.8672H154.93V87.0078H151.316V97.5547C151.316 98.3359 151.466 98.8958 151.766 99.2344C152.065 99.5729 152.638 99.7422 153.484 99.7422C154.109 99.7422 154.663 99.6966 155.145 99.6055V103.883C154.038 104.221 152.898 104.391 151.727 104.391C147.768 104.391 145.75 102.392 145.672 98.3945V87.0078H142.586V82.8672H145.672V77.6719H151.316ZM167.801 104.391C164.702 104.391 162.176 103.44 160.223 101.539C158.283 99.638 157.312 97.1055 157.312 93.9414V93.3945C157.312 91.2721 157.723 89.3776 158.543 87.7109C159.363 86.0312 160.522 84.7422 162.02 83.8438C163.53 82.9323 165.249 82.4766 167.176 82.4766C170.066 82.4766 172.339 83.388 173.992 85.2109C175.659 87.0339 176.492 89.6185 176.492 92.9648V95.2695H163.035C163.217 96.6497 163.764 97.7565 164.676 98.5898C165.6 99.4232 166.766 99.8398 168.172 99.8398C170.346 99.8398 172.046 99.0521 173.27 97.4766L176.043 100.582C175.197 101.78 174.051 102.717 172.605 103.395C171.16 104.059 169.559 104.391 167.801 104.391ZM167.156 87.0469C166.036 87.0469 165.125 87.4245 164.422 88.1797C163.732 88.9349 163.289 90.0156 163.094 91.4219H170.945V90.9727C170.919 89.7227 170.581 88.7591 169.93 88.082C169.279 87.3919 168.354 87.0469 167.156 87.0469ZM185.008 82.8672L185.184 85.2305C186.681 83.3945 188.706 82.4766 191.258 82.4766C193.979 82.4766 195.848 83.5508 196.863 85.6992C198.348 83.5508 200.464 82.4766 203.211 82.4766C205.503 82.4766 207.208 83.1471 208.328 84.4883C209.448 85.8164 210.008 87.8216 210.008 90.5039V104H204.344V90.5234C204.344 89.3255 204.109 88.4531 203.641 87.9062C203.172 87.3464 202.345 87.0664 201.16 87.0664C199.467 87.0664 198.296 87.8737 197.645 89.4883L197.664 104H192.02V90.543C192.02 89.319 191.779 88.4336 191.297 87.8867C190.815 87.3398 189.995 87.0664 188.836 87.0664C187.234 87.0664 186.076 87.7305 185.359 89.0586V104H179.715V82.8672H185.008ZM236.57 104C236.31 103.492 236.121 102.861 236.004 102.105C234.637 103.629 232.859 104.391 230.672 104.391C228.602 104.391 226.883 103.792 225.516 102.594C224.161 101.396 223.484 99.8854 223.484 98.0625C223.484 95.8229 224.311 94.1042 225.965 92.9062C227.632 91.7083 230.034 91.1029 233.172 91.0898H235.77V89.8789C235.77 88.9023 235.516 88.1211 235.008 87.5352C234.513 86.9492 233.725 86.6562 232.645 86.6562C231.694 86.6562 230.945 86.8841 230.398 87.3398C229.865 87.7956 229.598 88.4206 229.598 89.2148H223.953C223.953 87.9909 224.331 86.8581 225.086 85.8164C225.841 84.7747 226.909 83.9609 228.289 83.375C229.669 82.776 231.219 82.4766 232.938 82.4766C235.542 82.4766 237.605 83.1341 239.129 84.4492C240.665 85.7513 241.434 87.5872 241.434 89.957V99.1172C241.447 101.122 241.727 102.639 242.273 103.668V104H236.57ZM231.902 100.074C232.736 100.074 233.504 99.8919 234.207 99.5273C234.91 99.1497 235.431 98.6484 235.77 98.0234V94.3906H233.66C230.835 94.3906 229.331 95.3672 229.148 97.3203L229.129 97.6523C229.129 98.3555 229.376 98.9349 229.871 99.3906C230.366 99.8464 231.043 100.074 231.902 100.074ZM254.852 93.2383C254.852 91.1419 255.255 89.2734 256.062 87.6328C256.87 85.9922 258.029 84.7227 259.539 83.8242C261.062 82.9258 262.827 82.4766 264.832 82.4766C267.684 82.4766 270.008 83.349 271.805 85.0938C273.615 86.8385 274.624 89.2083 274.832 92.2031L274.871 93.6484C274.871 96.8906 273.966 99.4948 272.156 101.461C270.346 103.414 267.918 104.391 264.871 104.391C261.824 104.391 259.389 103.414 257.566 101.461C255.757 99.5078 254.852 96.8516 254.852 93.4922V93.2383ZM260.496 93.6484C260.496 95.6536 260.874 97.1901 261.629 98.2578C262.384 99.3125 263.465 99.8398 264.871 99.8398C266.238 99.8398 267.306 99.319 268.074 98.2773C268.842 97.2227 269.227 95.543 269.227 93.2383C269.227 91.2721 268.842 89.7487 268.074 88.668C267.306 87.5872 266.225 87.0469 264.832 87.0469C263.452 87.0469 262.384 87.5872 261.629 88.668C260.874 89.7357 260.496 91.3958 260.496 93.6484ZM279.891 104V87.0078H276.746V82.8672H279.891V81.0703C279.891 78.7005 280.568 76.8646 281.922 75.5625C283.289 74.2474 285.197 73.5898 287.645 73.5898C288.426 73.5898 289.383 73.7201 290.516 73.9805L290.457 78.3555C289.988 78.2383 289.415 78.1797 288.738 78.1797C286.616 78.1797 285.555 79.1758 285.555 81.168V82.8672H289.754V87.0078H285.555V104H279.891ZM301.941 104.391C298.842 104.391 296.316 103.44 294.363 101.539C292.423 99.638 291.453 97.1055 291.453 93.9414V93.3945C291.453 91.2721 291.863 89.3776 292.684 87.7109C293.504 86.0312 294.663 84.7422 296.16 83.8438C297.671 82.9323 299.389 82.4766 301.316 82.4766C304.207 82.4766 306.479 83.388 308.133 85.2109C309.799 87.0339 310.633 89.6185 310.633 92.9648V95.2695H297.176C297.358 96.6497 297.905 97.7565 298.816 98.5898C299.741 99.4232 300.906 99.8398 302.312 99.8398C304.487 99.8398 306.186 99.0521 307.41 97.4766L310.184 100.582C309.337 101.78 308.191 102.717 306.746 103.395C305.301 104.059 303.699 104.391 301.941 104.391ZM301.297 87.0469C300.177 87.0469 299.266 87.4245 298.562 88.1797C297.872 88.9349 297.43 90.0156 297.234 91.4219H305.086V90.9727C305.06 89.7227 304.721 88.7591 304.07 88.082C303.419 87.3919 302.495 87.0469 301.297 87.0469ZM325.73 88.1602C324.962 88.056 324.285 88.0039 323.699 88.0039C321.564 88.0039 320.164 88.7266 319.5 90.1719V104H313.855V82.8672H319.188L319.344 85.3867C320.477 83.4466 322.046 82.4766 324.051 82.4766C324.676 82.4766 325.262 82.5612 325.809 82.7305L325.73 88.1602ZM337.801 104.391C334.702 104.391 332.176 103.44 330.223 101.539C328.283 99.638 327.312 97.1055 327.312 93.9414V93.3945C327.312 91.2721 327.723 89.3776 328.543 87.7109C329.363 86.0312 330.522 84.7422 332.02 83.8438C333.53 82.9323 335.249 82.4766 337.176 82.4766C340.066 82.4766 342.339 83.388 343.992 85.2109C345.659 87.0339 346.492 89.6185 346.492 92.9648V95.2695H333.035C333.217 96.6497 333.764 97.7565 334.676 98.5898C335.6 99.4232 336.766 99.8398 338.172 99.8398C340.346 99.8398 342.046 99.0521 343.27 97.4766L346.043 100.582C345.197 101.78 344.051 102.717 342.605 103.395C341.16 104.059 339.559 104.391 337.801 104.391ZM337.156 87.0469C336.036 87.0469 335.125 87.4245 334.422 88.1797C333.732 88.9349 333.289 90.0156 333.094 91.4219H340.945V90.9727C340.919 89.7227 340.581 88.7591 339.93 88.082C339.279 87.3919 338.354 87.0469 337.156 87.0469ZM358.504 99.8398C359.546 99.8398 360.392 99.5534 361.043 98.9805C361.694 98.4076 362.033 97.6458 362.059 96.6953H367.352C367.339 98.1276 366.948 99.4427 366.18 100.641C365.411 101.826 364.357 102.75 363.016 103.414C361.688 104.065 360.216 104.391 358.602 104.391C355.581 104.391 353.198 103.434 351.453 101.52C349.708 99.5924 348.836 96.9362 348.836 93.5508V93.1797C348.836 89.9245 349.702 87.3268 351.434 85.3867C353.165 83.4466 355.542 82.4766 358.562 82.4766C361.206 82.4766 363.322 83.2318 364.91 84.7422C366.512 86.2396 367.326 88.2383 367.352 90.7383H362.059C362.033 89.6445 361.694 88.7591 361.043 88.082C360.392 87.3919 359.533 87.0469 358.465 87.0469C357.15 87.0469 356.154 87.5286 355.477 88.4922C354.812 89.4427 354.48 90.9922 354.48 93.1406V93.7266C354.48 95.901 354.812 97.4635 355.477 98.4141C356.141 99.3646 357.15 99.8398 358.504 99.8398ZM380.301 104.391C377.202 104.391 374.676 103.44 372.723 101.539C370.783 99.638 369.812 97.1055 369.812 93.9414V93.3945C369.812 91.2721 370.223 89.3776 371.043 87.7109C371.863 86.0312 373.022 84.7422 374.52 83.8438C376.03 82.9323 377.749 82.4766 379.676 82.4766C382.566 82.4766 384.839 83.388 386.492 85.2109C388.159 87.0339 388.992 89.6185 388.992 92.9648V95.2695H375.535C375.717 96.6497 376.264 97.7565 377.176 98.5898C378.1 99.4232 379.266 99.8398 380.672 99.8398C382.846 99.8398 384.546 99.0521 385.77 97.4766L388.543 100.582C387.697 101.78 386.551 102.717 385.105 103.395C383.66 104.059 382.059 104.391 380.301 104.391ZM379.656 87.0469C378.536 87.0469 377.625 87.4245 376.922 88.1797C376.232 88.9349 375.789 90.0156 375.594 91.4219H383.445V90.9727C383.419 89.7227 383.081 88.7591 382.43 88.082C381.779 87.3919 380.854 87.0469 379.656 87.0469ZM404.09 88.1602C403.322 88.056 402.645 88.0039 402.059 88.0039C399.923 88.0039 398.523 88.7266 397.859 90.1719V104H392.215V82.8672H397.547L397.703 85.3867C398.836 83.4466 400.405 82.4766 402.41 82.4766C403.035 82.4766 403.621 82.5612 404.168 82.7305L404.09 88.1602ZM403.719 101.227C403.719 100.328 404.018 99.599 404.617 99.0391C405.229 98.4792 405.991 98.1992 406.902 98.1992C407.827 98.1992 408.589 98.4792 409.188 99.0391C409.799 99.599 410.105 100.328 410.105 101.227C410.105 102.112 409.806 102.835 409.207 103.395C408.608 103.941 407.84 104.215 406.902 104.215C405.978 104.215 405.216 103.941 404.617 103.395C404.018 102.835 403.719 102.112 403.719 101.227Z" fill="#1D1D1F"/>
</svg>
