<?xml version="1.0" encoding="UTF-8" standalone="no"?>
<!-- Generator: Adobe Illustrator 19.0.0, SVG Export Plug-In . SVG Version: 6.00 Build 0)  -->

<svg
   version="1.1"
   id="Layer_1"
   x="0px"
   y="0px"
   viewBox="0 0 511.999 511.999"
   style="enable-background:new 0 0 511.999 511.999;"
   xml:space="preserve"
   sodipodi:docname="choices_cupcake_super_premium.svg"
   inkscape:version="1.1 (c68e22c387, 2021-05-23)"
   xmlns:inkscape="http://www.inkscape.org/namespaces/inkscape"
   xmlns:sodipodi="http://sodipodi.sourceforge.net/DTD/sodipodi-0.dtd"
   xmlns="http://www.w3.org/2000/svg"
   xmlns:svg="http://www.w3.org/2000/svg"><defs
   id="defs87" /><sodipodi:namedview
   id="namedview85"
   pagecolor="#ffffff"
   bordercolor="#666666"
   borderopacity="1.0"
   inkscape:pageshadow="2"
   inkscape:pageopacity="0.0"
   inkscape:pagecheckerboard="0"
   showgrid="false"
   inkscape:zoom="0.57452539"
   inkscape:cx="-12.18397"
   inkscape:cy="159.26189"
   inkscape:window-width="1920"
   inkscape:window-height="1017"
   inkscape:window-x="-8"
   inkscape:window-y="-8"
   inkscape:window-maximized="1"
   inkscape:current-layer="Layer_1" />
<path
   style="fill:#58a780;fill-opacity:1"
   d="M283.927,121.313l35.488-35.488c17.846-17.846,17.846-46.778,0-64.623  c-17.846-17.846-46.778-17.846-64.623,0l-2.937,2.937l-2.937-2.937c-17.846-17.846-46.778-17.846-64.623,0  c-17.845,17.845-17.846,46.778,0,64.623l35.66,35.66"
   id="path2" />
<path
   style="fill:#FFFFFF;"
   d="M339.596,185.525h-23.929c17.621,0,31.906-14.69,31.906-32.31c0-17.621-14.284-32.31-31.906-32.31  H196.019c-17.621,0-31.906,14.689-31.906,32.31c0,17.62,14.284,32.31,31.906,32.31H172.09c-17.621,0-31.906,14.167-31.906,31.789  c0,17.62,14.284,31.789,31.906,31.789h143.577h23.929c17.622,0,31.906-14.168,31.906-31.789  C371.502,199.693,357.218,185.525,339.596,185.525z"
   id="path4" />
<path
   style="fill:#FAEDD6;"
   d="M140.185,344.654c-26.432,0-47.859-21.343-47.859-47.775c0-26.432,21.427-47.775,47.859-47.775  h231.318c26.432,0,47.859,21.343,47.859,47.775c0,26.432-21.427,47.817-47.859,47.817"
   id="path6" />
<polygon
   style="fill:#58a7a7;fill-opacity:1"
   points="347.572,504.183 164.114,504.183 140.185,328.701 180.067,320.724 219.949,328.701   259.831,320.724 291.738,328.701 331.62,320.724 371.502,328.701 "
   id="polygon8" />
<rect
   x="164.114"
   y="480.253"
   style="fill:#79b9b9;fill-opacity:1"
   width="183.459"
   height="23.929"
   id="rect10" />
<g
   id="g34">
	<rect
   x="188.409"
   y="472.144"
   style="fill:#232323;"
   width="134.452"
   height="15.634"
   id="rect12" />
	<rect
   x="212.381"
   y="376.256"
   style="fill:#232323;"
   width="15.634"
   height="15.634"
   id="rect14" />
	<rect
   x="133.169"
   y="265.776"
   style="fill:#232323;"
   width="14.592"
   height="15.634"
   id="rect16" />
	<rect
   x="188.409"
   y="280.368"
   style="fill:#232323;"
   width="15.634"
   height="15.634"
   id="rect18" />
	<rect
   x="235.311"
   y="265.776"
   style="fill:#232323;"
   width="16.676"
   height="15.634"
   id="rect20" />
	<rect
   x="116.493"
   y="297.044"
   style="fill:#232323;"
   width="16.676"
   height="15.634"
   id="rect22" />
	<rect
   x="251.987"
   y="280.368"
   style="fill:#232323;"
   width="15.634"
   height="15.634"
   id="rect24" />
	<rect
   x="308.269"
   y="265.776"
   style="fill:#232323;"
   width="14.592"
   height="15.634"
   id="rect26" />
	<rect
   x="339.537"
   y="280.368"
   style="fill:#232323;"
   width="15.634"
   height="15.634"
   id="rect28" />
	<path
   style="fill:#232323;"
   d="M371.502,241.808h-0.89c5.442-6.799,8.707-15.411,8.707-24.777   c0-19.492-14.116-35.738-32.659-39.082c5.423-6.778,8.679-15.352,8.679-24.673c0-21.872-17.768-39.666-39.672-39.666h-12.98   l22.256-22.256c10.107-10.108,15.674-23.547,15.674-37.84s-5.567-27.731-15.674-37.838C314.836,5.567,301.397,0,287.104,0   c-13.104,0-25.491,4.679-35.249,13.247C242.097,4.679,229.711,0,216.606,0c-14.294,0-27.731,5.567-37.839,15.674   c-20.864,20.865-20.865,54.814,0,75.679l22.256,22.256h-5.004c-21.903,0-39.88,17.793-39.88,39.666   c0,9.713,3.486,18.618,9.272,25.524c-18.746,3.168-33.223,19.411-33.223,38.922c0,9.061,3.065,17.414,8.213,24.086h-0.217   c-30.7,0-55.536,24.821-55.536,55.332c0,28.877,21.994,52.642,50.857,55.107l21.784,159.754h197.106l21.755-159.543   c28.282-2.23,51.199-26.18,51.199-55.318C427.35,266.629,402.202,241.808,371.502,241.808z M189.821,80.297   c-14.769-14.769-14.769-38.8,0-53.568c7.155-7.155,16.668-11.095,26.785-11.095c10.118,0,19.63,3.94,26.784,11.096l8.465,8.464   l8.465-8.464c7.153-7.156,16.666-11.096,26.783-11.096s19.63,3.94,26.784,11.096c7.154,7.153,11.095,16.666,11.095,26.783   c0,10.118-3.94,19.63-11.096,26.784l-33.313,33.313h-57.44L189.821,80.297z M172.09,193.864h127.841V178.23H195.705   c-12.507,0-23.931-11.687-23.931-24.954c0-13.251,10.964-24.032,24.246-24.032h119.646c13.283,0,24.038,10.781,24.038,24.032   s-10.59,24.032-24.14,24.032v15.634c0.034,0,0.068-0.002,0.102-0.002v0.002h23.93c13.282,0,24.088,10.806,24.088,24.089   c0,13.283-10.891,24.777-24.173,24.777h-23.846H171.733c-12.507,0-23.91-10.93-23.91-24.086   C147.822,204.567,158.837,193.864,172.09,193.864z M344.052,472.147h-12.853v15.634h10.721l-1.17,8.585H170.937l-1.17-8.585h10.304   v-15.634h-12.436l-18.712-137.222l31.144-6.23l32.314,6.463v25.467h15.634V335.06l31.626-6.326l24.656,6.164v82.008h15.634v-81.872   l31.689-6.339l31.144,6.23L344.052,472.147z M378.332,336.47l1.908-13.992l-48.619-9.724l-39.692,7.938l-31.906-7.976   l-40.073,8.015l-39.882-7.976l-48.62,9.724l1.869,13.706c-18.579-3.372-33.032-19.59-33.032-39.044   c0-21.89,17.823-39.698,39.902-39.698h7.576v8.338h15.634v-8.338h208.107c9.228,0,17.76,3.118,24.574,8.338h-8.596v15.634h16.676   v-7.364c4.746,6.511,7.559,14.481,7.559,23.089C411.716,316.907,397.175,333.352,378.332,336.47z"
   id="path30" />
	<rect
   x="387.481"
   y="304.34"
   style="fill:#232323;"
   width="16.676"
   height="15.634"
   id="rect32" />
</g>
<rect
   x="176.248"
   y="196.119"
   transform="matrix(-0.7071 -0.7071 0.7071 -0.7071 163.5773 493.8345)"
   style="fill:#58a7a7;fill-opacity:1"
   width="15.634"
   height="33.841"
   id="rect36" />
<rect
   x="225.519"
   y="217.204"
   transform="matrix(-0.8321 -0.5547 0.5547 -0.8321 314.6977 545.3201)"
   style="fill:#79b9b9;fill-opacity:1"
   width="28.76"
   height="15.635"
   id="rect38" />
<rect
   x="287.908"
   y="202.663"
   transform="matrix(-0.5547 -0.8321 0.8321 -0.5547 279.1622 583.4961)"
   style="fill:#58a780;fill-opacity:1"
   width="15.635"
   height="28.761"
   id="rect40" />
<g
   id="g46"
   style="fill:#79b9b9;fill-opacity:1">
	
		<rect
   x="334.641"
   y="205.22"
   transform="matrix(-0.7071 -0.7071 0.7071 -0.7071 449.5121 612.2684)"
   style="fill:#79b9b9;fill-opacity:1"
   width="33.841"
   height="15.634"
   id="rect42" />
	
		<rect
   x="192.207"
   y="132.301"
   transform="matrix(-0.7071 -0.7071 0.7071 -0.7071 235.9461 396.1753)"
   style="fill:#79b9b9;fill-opacity:1"
   width="15.634"
   height="33.841"
   id="rect44" />
</g>
<rect
   x="230.957"
   y="149.378"
   transform="matrix(-0.7071 -0.7071 0.7071 -0.7071 312.0004 443.6233)"
   style="fill:#58a780;fill-opacity:1"
   width="33.842"
   height="15.633"
   id="rect48" />
<rect
   x="295.888"
   y="136.639"
   transform="matrix(-0.3163 -0.9487 0.9487 -0.3163 258.1748 484.5719)"
   style="fill:#58a780;fill-opacity:1"
   width="15.635"
   height="25.224"
   id="rect50" />
<path
   style="fill:#FFFFFF;"
   d="M307.531,57.327h-15.634c0-4.169-3.431-7.963-8.642-7.963V33.731  C296.804,33.731,307.531,44.82,307.531,57.327z"
   id="path52" />
<g
   id="g54">
</g>
<g
   id="g56">
</g>
<g
   id="g58">
</g>
<g
   id="g60">
</g>
<g
   id="g62">
</g>
<g
   id="g64">
</g>
<g
   id="g66">
</g>
<g
   id="g68">
</g>
<g
   id="g70">
</g>
<g
   id="g72">
</g>
<g
   id="g74">
</g>
<g
   id="g76">
</g>
<g
   id="g78">
</g>
<g
   id="g80">
</g>
<g
   id="g82">
</g>
</svg>
