<?xml version="1.0" encoding="UTF-8" standalone="no"?>
<!-- Generator: Adobe Illustrator 19.0.0, SVG Export Plug-In . SVG Version: 6.00 Build 0)  -->

<svg
   version="1.1"
   id="Layer_1"
   x="0px"
   y="0px"
   viewBox="0 0 511.999 511.999"
   style="enable-background:new 0 0 511.999 511.999;"
   xml:space="preserve"
   sodipodi:docname="choices_cupcake_premium.svg"
   inkscape:version="1.1 (c68e22c387, 2021-05-23)"
   xmlns:inkscape="http://www.inkscape.org/namespaces/inkscape"
   xmlns:sodipodi="http://sodipodi.sourceforge.net/DTD/sodipodi-0.dtd"
   xmlns="http://www.w3.org/2000/svg"
   xmlns:svg="http://www.w3.org/2000/svg"><defs
   id="defs77" /><sodipodi:namedview
   id="namedview75"
   pagecolor="#ffffff"
   bordercolor="#666666"
   borderopacity="1.0"
   inkscape:pageshadow="2"
   inkscape:pageopacity="0.0"
   inkscape:pagecheckerboard="0"
   showgrid="false"
   inkscape:zoom="0.5745254"
   inkscape:cx="234.97656"
   inkscape:cy="314.17236"
   inkscape:window-width="1920"
   inkscape:window-height="1017"
   inkscape:window-x="-8"
   inkscape:window-y="-8"
   inkscape:window-maximized="1"
   inkscape:current-layer="Layer_1" />
<polygon
   style="fill:#58a7a7;fill-opacity:1"
   points="400.87,293.635 111.13,293.635 146.436,503.933 365.562,503.933 "
   id="polygon2" />
<g
   id="g10"
   style="fill:#58a780;fill-opacity:1">
	<polygon
   style="fill:#58a780;fill-opacity:1"
   points="287.99,293.635 224.012,293.635 231.737,503.933 280.263,503.933  "
   id="polygon4" />
	<polygon
   style="fill:#58a780;fill-opacity:1"
   points="400.654,293.635 368.881,293.635 341.627,503.933 365.727,503.933  "
   id="polygon6" />
	<polygon
   style="fill:#58a780;fill-opacity:1"
   points="111.344,293.635 143.112,293.635 170.371,503.933 146.273,503.933  "
   id="polygon8" />
</g>
<path
   style="fill:#fdffd0;fill-opacity:1"
   d="M409.82,229.713c-21.728-64.09-82.388-110.214-153.82-110.214s-132.092,46.124-153.823,110.214  c-27.033,5.763-47.316,29.771-47.316,58.527c0,33.055,26.796,59.851,59.851,59.851c19.125,0,36.14-8.98,47.094-22.941  c10.959,13.961,27.975,22.941,47.097,22.941c19.125,0,36.14-8.98,47.097-22.941c10.958,13.961,27.972,22.941,47.094,22.941  c19.125,0,36.142-8.98,47.097-22.941c10.958,13.961,27.974,22.941,47.097,22.941c33.055,0,59.851-26.797,59.851-59.851  C457.139,259.484,436.855,235.475,409.82,229.713z"
   id="path12" />
<path
   style="fill:#58a780;fill-opacity:1"
   d="M279.205,57.53c0-12.816-23.205-49.463-23.205-49.463s-23.205,36.647-23.205,49.463  c0,12.817,10.388,23.207,23.205,23.207C268.817,80.737,279.205,70.346,279.205,57.53z"
   id="path14" />
<g
   id="g24">
	<circle
   style="fill:#00BCB4;"
   cx="153.691"
   cy="211.708"
   r="16.679"
   id="circle16" />
	<circle
   style="fill:#00BCB4;"
   cx="319.772"
   cy="303.025"
   r="16.68"
   id="circle18" />
	<circle
   style="fill:#00BCB4;"
   cx="337.433"
   cy="168.147"
   r="16.679"
   id="circle20" />
	<circle
   style="fill:#00BCB4;"
   cx="243.244"
   cy="257.431"
   r="16.678"
   id="circle22" />
</g>
<g
   id="g32">
	<circle
   style="fill:#FFB819;"
   cx="92.146"
   cy="266.842"
   r="16.679"
   id="circle26" />
	<circle
   style="fill:#FFB819;"
   cx="200.909"
   cy="165.199"
   r="16.679"
   id="circle28" />
	<circle
   style="fill:#FFB819;"
   cx="349.716"
   cy="235.65"
   r="16.68"
   id="circle30" />
</g>
<g
   id="g40">
	<circle
   style="fill:#D85C72;"
   cx="174.568"
   cy="288.236"
   r="16.679"
   id="circle34" />
	<circle
   style="fill:#D85C72;"
   cx="418.382"
   cy="265.423"
   r="16.679"
   id="circle36" />
	<circle
   style="fill:#D85C72;"
   cx="279.201"
   cy="200.694"
   r="16.678"
   id="circle38" />
</g>
<path
   style="fill:#022a3a"
   d="m 255.7458,83.502359 c 17.243,0 31.272,-14.029 31.272,-31.274 0,-4.312 -1.303,-12.462 -12.568,-33.365 -5.868,-10.8879999 -11.645,-20.0309999 -11.888,-20.4139999 -1.479,-2.336 -4.052,-3.751 -6.816,-3.751 -2.764,0 -5.337,1.415 -6.816,3.752 -0.243,0.384 -6.02,9.526 -11.888,20.4139999 -11.266,20.902 -12.568,29.052 -12.568,33.365 0,17.243 14.029,31.273 31.272,31.273 z m 0,-65.112 c 8.122,14.129 15.138,28.769 15.138,33.838 0,8.348 -6.791,15.14 -15.138,15.14 -8.347,0 -15.138,-6.791 -15.138,-15.14 0,-5.07 7.016,-19.709 15.138,-33.838 z m -12.755,208.989001 c -13.645,0 -24.746,11.101 -24.746,24.746 0,13.645 11.101,24.746 24.746,24.746 13.644,0 24.744,-11.101 24.744,-24.746 0,-13.645 -11.1,-24.746 -24.744,-24.746 z m 0,33.358 c -4.749,0 -8.612,-3.863 -8.612,-8.612 0,-4.749 3.864,-8.612 8.612,-8.612 4.748,0 8.61,3.863 8.61,8.612 0,4.748 -3.862,8.612 -8.61,8.612 z m 106.476,-55.131 c -13.646,0 -24.747,11.101 -24.747,24.746 0,13.646 11.101,24.747 24.747,24.747 13.647,0 24.748,-11.101 24.748,-24.747 -0.001,-13.645 -11.102,-24.746 -24.748,-24.746 z m 0,33.359 c -4.749,0 -8.613,-3.863 -8.613,-8.613 0,-4.749 3.865,-8.612 8.613,-8.612 4.75,0 8.614,3.864 8.614,8.612 -0.001,4.749 -3.864,8.613 -8.614,8.613 z m -29.948,34.013 c -13.645,0 -24.747,11.101 -24.747,24.746 0,13.644 11.101,24.745 24.747,24.745 13.647,0 24.748,-11.101 24.748,-24.745 0,-13.645 -11.102,-24.746 -24.748,-24.746 z m 0,33.359 c -4.749,0 -8.613,-3.864 -8.613,-8.611 0,-4.749 3.865,-8.612 8.613,-8.612 4.75,0 8.614,3.864 8.614,8.612 0.001,4.747 -3.864,8.611 -8.614,8.611 z m -141.336,-99.929 c 0,-13.645 -11.1,-24.746 -24.744,-24.746 -13.647,0 -24.748,11.101 -24.748,24.746 0,13.646 11.101,24.747 24.748,24.747 13.644,-0.001 24.744,-11.102 24.744,-24.747 z m -33.357,0 c 0,-4.749 3.865,-8.612 8.614,-8.612 4.748,0 8.61,3.864 8.61,8.612 0,4.75 -3.862,8.613 -8.61,8.613 -4.75,-10e-4 -8.614,-3.864 -8.614,-8.613 z m 270.9,11.231 c -23.689,-64.363 -83.6,-108.104 -151.915,-111.311 V 90.240359 h -16.134 v 16.088001 c -68.314,3.208 -128.225,46.949 -151.916003,111.311 -28.782,8.243 -49.222,34.997 -49.222,65.299 0,37.023 29.782,67.202 66.646003,67.886 l 25.04,149.142 c 0.652,3.885 4.015,6.731 7.955,6.731 h 219.127 c 3.94,0 7.303,-2.846 7.955,-6.731 l 25.041,-149.142 c 36.864,-0.683 66.647,-30.862 66.647,-67.886 0.001,-30.302 -20.44,-57.058 -49.224,-65.299 z m 11.016,42.482 c 0,4.749 -3.865,8.612 -8.613,8.612 -4.748,0 -8.612,-3.863 -8.612,-8.612 0,-4.749 3.864,-8.612 8.612,-8.612 4.749,-0.002 8.613,3.862 8.613,8.612 z m -89.558,-105.889 c 4.748,0 8.611,3.863 8.611,8.612 0,4.749 -3.864,8.612 -8.611,8.612 -4.749,0 -8.613,-3.863 -8.613,-8.612 0,-4.749 3.864,-8.612 8.613,-8.612 z m -245.293003,98.694 c 4.748,0 8.610003,3.863 8.610003,8.613 0,4.749 -3.862003,8.612 -8.610003,8.612 -4.75,0 -8.614,-3.864 -8.614,-8.612 -0.001,-4.749 3.864,-8.613 8.614,-8.613 z m 61.114003,237.638 -23.73,-141.342 c 4.415,-0.979 8.698,-2.389 12.794,-4.212 l 18.867,145.554 z m 24.199,0 -20.064,-154.801 c 1.518,-1.233 2.996,-2.525 4.413,-3.896 12.588,12.164 29.302,18.988 47.096,18.988 3.143,0 6.25,-0.224 9.308,-0.642 l 5.157,140.349 h -45.91 z m 95.028,0 h -32.973 l -5.311,-144.564 c 8.054,-3.229 15.451,-8 21.798,-14.133 6.346,6.133 13.743,10.905 21.798,14.133 z m 16.145,0 5.157,-140.349 c 3.058,0.417 6.163,0.641 9.305,0.641 17.799,0 34.512,-6.824 47.098,-18.988 1.417,1.369 2.892,2.66 4.41,3.893 l -20.062,154.803 z m 70.104,0 h -7.93 l 18.865,-145.556 c 4.098,1.823 8.381,3.234 12.797,4.213 z m 38.552,-155.842 c -15.994,0 -30.848,-7.238 -40.752,-19.854 -1.529,-1.949 -3.869,-3.087 -6.346,-3.087 -2.477,0 -4.816,1.139 -6.345,3.087 -9.9,12.618 -24.754,19.854 -40.751,19.854 -15.992,0 -30.845,-7.238 -40.749,-19.854 -1.529,-1.949 -3.869,-3.087 -6.345,-3.087 -2.476,0 -4.818,1.138 -6.345,3.087 -9.904,12.618 -24.758,19.854 -40.752,19.854 -15.992,0 -30.846,-7.238 -40.752,-19.855 -1.529,-1.948 -3.87,-3.086 -6.346,-3.086 -2.477,0 -4.816,1.139 -6.345,3.087 -9.9,12.618 -24.752,19.854 -40.748,19.854 -28.555003,0 -51.784003,-23.231 -51.784003,-51.784 0,-7.384 1.599,-14.487 4.481,-20.946 0.244,13.436 11.242,24.292 24.736,24.292 13.644003,0 24.744003,-11.101 24.744003,-24.746 0,-13.646 -11.1,-24.747 -24.744003,-24.747 -0.322,0 -0.639,0.012 -0.957,0.024 3.944,-2.024 8.191,-3.561 12.670003,-4.515 2.781,-0.593 5.045,-2.606 5.958,-5.299 20.374,-60.089 75.256,-101.259 138.115,-104.521 v 14.855 h 16.134 v -14.857 c 22.745,1.181 44.444,7.322 63.844,17.529 -8.928,3.74 -15.217,12.567 -15.217,22.837 0,13.645 11.101,24.746 24.747,24.746 13.094,0 23.838,-10.225 24.685,-23.108 17.849,16.882 31.793,38.144 40.057,62.52 0.913,2.693 3.176,4.707 5.958,5.299 3.35,0.714 6.566,1.763 9.628,3.088 -13.359,0.33 -24.128,11.293 -24.128,24.731 0,13.645 11.101,24.746 24.746,24.746 13.646,0 24.747,-11.101 24.747,-24.746 0,-0.4 -0.012,-0.797 -0.03,-1.192 3.818,7.244 5.971,15.438 5.971,24.009 -10e-4,28.555 -23.232,51.785 -51.785,51.785 z m -222.726,-76.53 c -13.645,0 -24.745,11.101 -24.745,24.746 0,13.645 11.1,24.746 24.745,24.746 13.645,0 24.747,-11.101 24.747,-24.746 0.001,-13.645 -11.102,-24.746 -24.747,-24.746 z m 0,33.358 c -4.748,0 -8.611,-3.864 -8.611,-8.612 0,-4.749 3.863,-8.612 8.611,-8.612 4.749,0 8.613,3.864 8.613,8.612 0.001,4.749 -3.864,8.612 -8.613,8.612 z m 129.388,-96.161 c 0,-13.645 -11.1,-24.746 -24.745,-24.746 -13.644,0 -24.746,11.101 -24.746,24.746 0,13.645 11.101,24.746 24.746,24.746 13.645,0.001 24.745,-11.102 24.745,-24.746 z m -24.745,8.613 c -4.749,0 -8.612,-3.864 -8.612,-8.612 0,-4.748 3.863,-8.612 8.612,-8.612 4.748,0 8.611,3.864 8.611,8.612 0,4.748 -3.863,8.612 -8.611,8.612 z m -78.296,-68.846 c -13.646,0 -24.747,11.101 -24.747,24.746 0,13.645 11.101,24.746 24.747,24.746 13.645,0 24.745,-11.101 24.745,-24.746 0,-13.645 -11.1,-24.746 -24.745,-24.746 z m 0,33.358 c -4.749,0 -8.613,-3.864 -8.613,-8.612 0,-4.748 3.865,-8.612 8.613,-8.612 4.748,0 8.611,3.864 8.611,8.612 0,4.748 -3.863,8.612 -8.611,8.612 z"
   id="path42" />
<g
   id="g44">
</g>
<g
   id="g46">
</g>
<g
   id="g48">
</g>
<g
   id="g50">
</g>
<g
   id="g52">
</g>
<g
   id="g54">
</g>
<g
   id="g56">
</g>
<g
   id="g58">
</g>
<g
   id="g60">
</g>
<g
   id="g62">
</g>
<g
   id="g64">
</g>
<g
   id="g66">
</g>
<g
   id="g68">
</g>
<g
   id="g70">
</g>
<g
   id="g72">
</g>
</svg>
